<svg xmlns="http://www.w3.org/2000/svg" width="16" height="16"><path d="M12.458 3.104a3.78 3.78 0 00-5.34 0L3.042 7.179a.14.14 0 00-.041.1.14.14 0 00.04.1l.577.576a.14.14 0 00.199 0L7.894 3.88a2.663 2.663 0 011.895-.784c.716 0 1.39.278 1.894.784.506.507.784 1.18.784 1.894a2.66 2.66 0 01-.784 1.894l-4.156 4.155-.674.673a1.615 1.615 0 01-2.755-1.14c0-.432.168-.836.472-1.141l4.124-4.122a.551.551 0 01.389-.161h.001c.147 0 .283.058.386.161a.545.545 0 010 .775L6.1 10.235a.14.14 0 00-.04.1.14.14 0 00.04.1l.577.577a.14.14 0 00.198 0l3.369-3.369c.31-.311.481-.723.481-1.163 0-.439-.172-.853-.481-1.162a1.649 1.649 0 00-2.328 0l-.4.402-3.722 3.72A2.69 2.69 0 003 11.357a2.707 2.707 0 002.71 2.706 2.7 2.7 0 001.917-.792l4.83-4.828a3.757 3.757 0 001.106-2.669 3.745 3.745 0 00-1.105-2.67z"/></svg>