<svg xmlns="http://www.w3.org/2000/svg" width="16" height="16"><path d="M8.098 7.172a.125.125 0 00-.196 0l-1.75 2.214a.125.125 0 00.098.202h1.155v3.787c0 .069.056.125.125.125h.937a.125.125 0 00.125-.125V9.589H9.75c.105 0 .162-.12.098-.202l-1.75-2.215z"/><path d="M12.678 5.73A5.002 5.002 0 008.003 2.5a5 5 0 00-4.675 3.228 3.126 3.126 0 00.795 6.147h.627a.125.125 0 00.125-.125v-.938a.125.125 0 00-.125-.124h-.627a1.937 1.937 0 01-1.527-3.131 1.959 1.959 0 011.034-.684l.592-.154.217-.572a3.838 3.838 0 011.377-1.77 3.783 3.783 0 012.187-.691c.79 0 1.545.239 2.188.69a3.84 3.84 0 011.376 1.77l.216.571.59.156c.847.229 1.44.999 1.44 1.877 0 .517-.202 1.005-.568 1.37a1.923 1.923 0 01-1.368.568h-.627a.125.125 0 00-.125.124v.938c0 .069.056.125.125.125h.627a3.124 3.124 0 00.801-6.145z" opacity=".75"/></svg>