<svg xmlns="http://www.w3.org/2000/svg" width="16" height="16"><path d="M10.042 9.38a.125.125 0 01.177 0l2.089 2.087.683-.683c.073-.073.2-.03.212.074l.295 2.503a.125.125 0 01-.139.139l-2.503-.295a.125.125 0 01-.073-.213l.686-.686-2.09-2.089a.125.125 0 010-.176zM2.641 2.5l2.503.295c.103.013.147.14.073.213l-.686.686 2.09 2.089a.125.125 0 010 .176l-.663.661a.125.125 0 01-.177 0L3.692 4.533l-.683.683a.125.125 0 01-.212-.074L2.502 2.64a.125.125 0 01.138-.14z"/><path d="M5.781 9.38a.125.125 0 01.177 0l.662.662a.125.125 0 010 .177l-2.089 2.087.686.685c.074.073.03.2-.073.212l-2.503.295a.125.125 0 01-.14-.139l.296-2.501a.125.125 0 01.212-.074l.683.683zm7.578-6.878a.125.125 0 01.14.139l-.296 2.501a.125.125 0 01-.212.074l-.683-.683-2.09 2.087a.125.125 0 01-.176 0l-.662-.662a.125.125 0 010-.177l2.089-2.086-.686-.686a.125.125 0 01.073-.212z" opacity=".75"/></svg>