<svg xmlns="http://www.w3.org/2000/svg" width="16" height="16"><path d="M9.734 9.594l2.504.295c.103.013.146.14.073.213l-.686.685 2.09 2.09a.125.125 0 010 .176l-.663.661a.125.125 0 01-.177 0l-2.09-2.087-.682.682a.125.125 0 01-.212-.073l-.296-2.503a.125.125 0 01.14-.14zM2.948 2.286a.125.125 0 01.177 0l2.09 2.087.682-.682c.073-.074.2-.03.212.073l.296 2.503a.125.125 0 01-.14.14L3.764 6.11a.125.125 0 01-.074-.213l.686-.685-2.09-2.09a.125.125 0 010-.176z" opacity=".75"/><path d="M6.267 9.595c.08-.01.147.058.138.138l-.296 2.501a.125.125 0 01-.212.074l-.683-.683-2.089 2.088a.125.125 0 01-.177 0l-.662-.661a.125.125 0 010-.177l2.089-2.086-.686-.686a.125.125 0 01.074-.212zm6.608-7.308a.125.125 0 01.177 0l.662.661a.125.125 0 010 .177l-2.089 2.088.686.684c.073.073.03.2-.073.212l-2.505.296a.124.124 0 01-.138-.14l.296-2.5a.125.125 0 01.212-.074l.683.682z"/></svg>