<svg xmlns="http://www.w3.org/2000/svg" width="16" height="16"><path d="M8.103 11.498a1.658 1.658 0 001.58-1.114.092.092 0 00-.05-.112.097.097 0 00-.122.037c-.002.004-.256.402-1.245.53a3.298 3.298 0 01-.428.03c-.693 0-1.001-.254-1.004-.256a.097.097 0 00-.124-.002.09.09 0 00-.02.12c.301.473.843.767 1.413.767zm5.315-5.933l-.025.002c-.579-2.428-2.792-4.24-5.446-4.24-2.727 0-4.99 1.912-5.492 4.44-.488.086-.86.501-.86 1.003v2.01c0 .564.467 1.021 1.043 1.021.325 0 .612-.148.802-.377a4.761 4.761 0 002.588 2.635.551.551 0 01.052-.082c.019-.023.04-.042.057-.042a.09.09 0 01.051.016c-.275-.198-1.268-1.216-1.483-2.638-.094-.626.39-1.24.953-1.342.905-.163 1.805-.35 2.71-.51.575-.1.968-.406 1.209-.915a2.29 2.29 0 00.175-.706.111.111 0 01.199-.046l.025-.015c.357.5 1.064 1.612 1.166 2.782.116 1.339.051 2.256-1.007 3.194a.082.082 0 00-.028.061c0 .029.016.054.04.068l.026.012.02.003c.007 0 .014-.002.02-.003l.044-.025a4.72 4.72 0 002.27-2.67c.154.22.394.38.674.435-.448 1.973-2.265 3.207-4.515 3.395a.922.922 0 00-.857-.554c-.51 0-.923.39-.923.872 0 .481.413.871.923.871.41 0 .754-.255.874-.606 2.605-.205 4.694-1.705 5.13-4.035.385-.157.655-.522.655-.95V6.597c0-.57-.479-1.03-1.07-1.03zm-.961.585c-.68-1.783-2.44-3.057-4.512-3.057-2.063 0-3.818 1.263-4.504 3.034-.033-.04-.074-.075-.113-.11.388-2.158 2.307-3.8 4.62-3.8 2.301 0 4.213 1.626 4.614 3.769a1.07 1.07 0 00-.105.164z"/></svg>