<svg xmlns="http://www.w3.org/2000/svg" width="16" height="16"><path d="M13.8 12c.11 0 .2.09.2.2v.6a.2.2 0 01-.2.2H2.2a.2.2 0 01-.2-.2v-.6c0-.11.09-.2.2-.2h11.6zm0-3c.11 0 .2.09.2.2v.6a.2.2 0 01-.2.2H7.2a.2.2 0 01-.2-.2v-.6c0-.11.09-.2.2-.2h6.6zm0-3c.11 0 .2.09.2.2v.6a.2.2 0 01-.2.2H7.2a.2.2 0 01-.2-.2v-.6c0-.11.09-.2.2-.2h6.6zm0-3c.11 0 .2.09.2.2v.6a.2.2 0 01-.2.2H2.2a.2.2 0 01-.2-.2v-.6c0-.11.09-.2.2-.2h11.6z" opacity=".75"/><path d="M2 6.374v3.252a.2.2 0 00.31.167l2.44-1.627a.2.2 0 000-.332L2.31 6.207a.2.2 0 00-.31.167z"/></svg>