<svg xmlns="http://www.w3.org/2000/svg" width="16" height="16"><path d="M13 2a1 1 0 011 1v10a1 1 0 01-1 1H3a1 1 0 01-1-1V3a1 1 0 011-1h10zm0 1H3v10h10V3z" opacity=".75"/><path d="M8.469 5.25c.055 0 .102.036.118.086l.007.039-.001 2.031h2.032c.055 0 .102.036.119.086l.006.04v.937a.125.125 0 01-.086.118l-.039.007-2.032-.001v2.032a.125.125 0 01-.085.119l-.04.006h-.937a.125.125 0 01-.118-.086l-.007-.039V8.593H5.375a.125.125 0 01-.119-.085l-.006-.04v-.937c0-.055.036-.102.086-.118l.039-.007h2.031V5.375c0-.055.036-.102.086-.119l.04-.006h.937z"/></svg>