<svg xmlns="http://www.w3.org/2000/svg" width="16" height="16"><path d="M4.62 4.906h1.332c.134 0 .243.043.33.13a.437.437 0 01.128.321.437.437 0 01-.129.323.5.5 0 01-.33.143H3.819a.5.5 0 01-.33-.143.429.429 0 01-.129-.315V3.23c0-.133.043-.243.13-.329a.446.446 0 01.329-.129.45.45 0 01.33.129.446.446 0 01.128.33v.716a5.531 5.531 0 015.93-.988 5.521 5.521 0 012.399 2.033c.587.898.885 1.9.895 3.008-.038 1.556-.575 2.853-1.611 3.889C10.853 12.925 9.556 13.462 8 13.5c-1.556-.038-2.853-.575-3.889-1.611C3.075 10.853 2.538 9.556 2.5 8h.917c.028 1.299.475 2.38 1.339 3.244.864.864 1.945 1.31 3.244 1.34 1.299-.03 2.378-.476 3.237-1.34.86-.864 1.308-1.945 1.346-3.244-.01-.964-.277-1.826-.802-2.585a4.656 4.656 0 00-2.12-1.683 4.636 4.636 0 00-2.7-.194C6.06 3.744 5.28 4.2 4.62 4.906z"/></svg>