<svg xmlns="http://www.w3.org/2000/svg" width="16" height="16"><path d="M11.724 12.043a5.53 5.53 0 01-5.93.986C4.782 12.57 3.982 11.895 3.395 11A5.44 5.44 0 012.5 8h.917c.01.962.274 1.824.795 2.586.52.762 1.229 1.319 2.127 1.671a4.53 4.53 0 002.7.2c.902-.21 1.682-.667 2.341-1.371h-1.332a.447.447 0 01-.33-.129.436.436 0 01-.128-.321c0-.129.043-.236.129-.322a.5.5 0 01.33-.143h2.133c.124.01.23.058.315.143.086.086.134.19.144.315v2.128a.497.497 0 01-.144.329.438.438 0 01-.322.128.438.438 0 01-.451-.457v-.714z" opacity=".75"/><path d="M4.62 4.914h1.332c.134 0 .243.043.33.129a.436.436 0 01.128.321.436.436 0 01-.129.322.5.5 0 01-.33.143H3.819a.484.484 0 01-.315-.143.482.482 0 01-.144-.315V3.243a.497.497 0 01.144-.329.438.438 0 01.322-.128.438.438 0 01.451.457v.714c.83-.743 1.774-1.2 2.829-1.371a5.59 5.59 0 013.115.385A5.48 5.48 0 0113.501 8h-.917c-.01-.962-.274-1.824-.795-2.586-.52-.762-1.229-1.319-2.127-1.671a4.535 4.535 0 00-2.7-.2c-.902.21-1.682.667-2.341 1.371z"/></svg>