<svg xmlns="http://www.w3.org/2000/svg" width="16" height="16"><path d="M14.213 13.352l-4.058-4.058c.63-.814.97-1.81.97-2.857a4.66 4.66 0 00-1.373-3.314A4.653 4.653 0 006.437 1.75a4.66 4.66 0 00-3.314 1.373A4.65 4.65 0 001.75 6.437c0 1.252.49 2.43 1.373 3.315a4.65 4.65 0 003.314 1.373 4.65 4.65 0 002.855-.969l4.058 4.056c.05.05.131.05.181 0l.681-.68a.128.128 0 000-.18zm-5.3-4.44a3.481 3.481 0 01-2.476 1.025 3.481 3.481 0 01-2.475-1.024 3.481 3.481 0 01-1.025-2.476 3.48 3.48 0 011.026-2.475 3.481 3.481 0 012.474-1.025c.935 0 1.815.363 2.475 1.026a3.481 3.481 0 011.025 2.474c0 .935-.364 1.815-1.024 2.475z"/></svg>