<svg xmlns="http://www.w3.org/2000/svg" width="32" height="32"><g fill="none"><path fill="#A15FDE" d="M28.41 9.547v16.838a3.048 3.048 0 01-3.048 3.048H7.076a3.048 3.048 0 01-3.048-3.048V5.052a3.048 3.048 0 013.048-3.048h13.79l7.543 7.543z"/><path fill="#C386F0" d="M20.866 7.262V2.004l7.543 7.543h-5.257a2.286 2.286 0 01-2.286-2.285z"/><path fill="#FFF" d="M10.124 17.243a6.095 6.095 0 1012.19 0 6.095 6.095 0 00-12.19 0z"/><path fill="#A15FDE" d="M18.124 17.936a1.996 1.996 0 01-1.044 1.15l1.432 3.048a5.387 5.387 0 002.804-3.048l-3.192-1.15zm-3.261-.693a1.356 1.356 0 102.712 0 1.356 1.356 0 00-2.712 0z"/><path fill="#FFF" d="M15.54 17.243a.678.678 0 101.357 0 .678.678 0 00-1.356 0z"/><path fill="#A15FDE" d="M11.122 15.391a5.387 5.387 0 012.803-3.047l1.433 3.047a1.996 1.996 0 00-1.044 1.15l-3.192-1.15z"/></g></svg>