<svg xmlns="http://www.w3.org/2000/svg" width="32" height="32"><g fill="none"><path fill="#5398DF" d="M32 7.73v14.24a1.973 1.973 0 01-2.05 1.883H8.617a1.92 1.92 0 01-1.958-2.446l3.39-9.905H1.883A1.798 1.798 0 010 9.803V4.721a1.798 1.798 0 011.882-1.699h10.126a1.928 1.928 0 011.706.945l1.021 1.859h15.238c1.085-.03 1.99.82 2.027 1.905z"/><path fill="#85BCFF" d="M1.524 7.715h28.952c1.016 0 1.524.508 1.524 1.524v17.669c0 1.016-.508 1.524-1.524 1.524H1.524C.508 28.432 0 27.924 0 26.908V9.239c0-1.016.508-1.524 1.524-1.524z"/><path fill="#3D89D6" d="M12.168 15.32h7.664c.508 0 .762.253.762.761v6.964c0 .508-.254.762-.762.762h-7.664c-.508 0-.762-.254-.762-.762V16.08c0-.508.254-.762.762-.762zm-1.06-2.18h9.776c.36 0 .54.18.54.541v.26c0 .36-.18.54-.54.54h-9.775c-.361 0-.541-.18-.541-.54v-.26c0-.36.18-.54.54-.54z"/><path fill="#3D89D6" d="M15.291 12.44h1.425c.36 0 .541.18.541.54v.26c0 .36-.18.54-.54.54H15.29c-.36 0-.54-.18-.54-.54v-.26c0-.36.18-.54.54-.54z"/><path fill="#85BCFF" d="M14.331 22.253a.381.381 0 01-.38-.381v-4.618a.381.381 0 01.761 0v4.625a.381.381 0 01-.38.374zm3.338 0a.381.381 0 01-.381-.381v-4.618a.381.381 0 11.762 0v4.625a.381.381 0 01-.381.374z"/></g></svg>