<svg xmlns="http://www.w3.org/2000/svg" width="32" height="32"><g fill="none"><path fill="#ED5050" d="M28.41 9.547v16.838a3.048 3.048 0 01-3.048 3.048H7.076a3.048 3.048 0 01-3.048-3.048V5.052a3.048 3.048 0 013.048-3.048h13.79l7.543 7.543z"/><path fill="#D43030" d="M20.866 8.024v-6.02l7.543 7.543H22.39a1.524 1.524 0 01-1.524-1.523z"/><path fill="#FFF" d="M20.028 17.776a9.661 9.661 0 00-1.859.213 9.021 9.021 0 01-1.844-2.377c.51-1.653.534-2.78.153-3.314a.983.983 0 00-.762-.389.96.96 0 00-.922.48c-.533.884.236 2.636.594 3.345a21.051 21.051 0 01-1.57 3.672c-2.849 1.22-2.933 1.958-2.933 2.225.01.329.205.624.503.762a.762.762 0 00.442.114c.762 0 1.6-.83 2.522-2.453a20.571 20.571 0 013.52-1.128 3.81 3.81 0 002.194.892c.503 0 1.524 0 1.524-1.014.008-.342-.198-.998-1.562-1.028zm-8.144 3.886h-.092c.26-.39.631-.69 1.067-.861-.218.39-.562.693-.975.86zm3.641-8.83a.183.183 0 01.122 0h.092a2.53 2.53 0 010 1.523 2.4 2.4 0 01-.214-1.524zm1.524 5.744c-.684.16-1.358.358-2.019.594v-.06h-.06c.327-.648.624-1.334.89-2.012v-.061a9.143 9.143 0 001.182 1.447h-.084l.091.092zm3.048.388a2.583 2.583 0 01-.9-.198c.252-.049.507-.07.763-.06.586 0 .708.144.708.236a1.28 1.28 0 01-.579.022h.008z"/></g></svg>