<svg xmlns="http://www.w3.org/2000/svg" width="32" height="32"><g fill="none"><path fill="#84C6EB" d="M28.39 9.547v16.838a3.048 3.048 0 01-3.048 3.048H7.056a3.048 3.048 0 01-3.047-3.048V5.052a3.048 3.048 0 013.047-3.048h13.79l7.543 7.543z"/><path fill="#53A0CC" d="M20.991 6.5V2.004l7.543 7.543H24.04A3.048 3.048 0 0120.991 6.5z"/><path fill="#FFF" d="M16.344 21.852a4.213 4.213 0 114.198-4.61.762.762 0 01-.206.61.762.762 0 01-.579.26h-5.996a2.629 2.629 0 004.785 1.012l1.31.877a4.221 4.221 0 01-3.512 1.851zm-2.362-5.371h4.747a2.636 2.636 0 00-4.747 0z"/><path fill="#FFF" d="M11.529 20.519c-1.311 0-2.286-.282-2.461-.945-.435-1.448 2.773-2.956 4.175-3.535l.29.7c-3.01 1.25-3.81 2.286-3.734 2.606.152.496 2.743.762 6.964-.518 4.22-1.28 6.217-2.948 6.095-3.443-.114-.359-1.577-.656-4.366-.122l-.144-.762c1.432-.275 4.807-.762 5.234.647.427 1.41-3.002 3.315-6.598 4.381-1.764.58-3.6.913-5.455.99z" opacity=".6"/></g></svg>