<svg xmlns="http://www.w3.org/2000/svg" width="32" height="32"><g fill="none"><path fill="#5398DF" d="M32 7.73v14.24a1.973 1.973 0 01-2.05 1.883H8.617a1.92 1.92 0 01-1.958-2.446l3.39-9.905H1.883A1.798 1.798 0 010 9.803V4.721a1.798 1.798 0 011.882-1.699h10.126a1.928 1.928 0 011.706.945l1.021 1.859h15.238c1.085-.03 1.99.82 2.027 1.905z"/><path fill="#85BCFF" d="M1.524 7.715h28.952c1.016 0 1.524.508 1.524 1.524v17.669c0 1.016-.508 1.524-1.524 1.524H1.524C.508 28.432 0 27.924 0 26.908V9.239c0-1.016.508-1.524 1.524-1.524z"/><path fill="#3D89D6" d="M16.762 13.392l1.128 2.339 2.582.373a.823.823 0 01.458 1.402l-1.882 1.82.434 2.576a.815.815 0 01-1.196.861L16 21.552l-2.286 1.211a.815.815 0 01-1.188-.86l.426-2.576-1.866-1.821a.823.823 0 01.457-1.402l2.567-.373 1.128-2.34a.823.823 0 011.524 0z"/></g></svg>