<svg xmlns="http://www.w3.org/2000/svg" width="32" height="32"><g fill="none"><path fill="#F4C446" d="M28.41 9.547v16.838a3.048 3.048 0 01-3.048 3.048H7.076a3.048 3.048 0 01-3.048-3.048V5.052a3.048 3.048 0 013.048-3.048h13.79l7.543 7.543z"/><path fill="#DBAC30" d="M20.866 6.5V2.004l7.543 7.543h-4.495A3.048 3.048 0 0120.866 6.5z"/><path fill="#FFF" d="M14.2 2.004h1.836v1.837H14.2V2.004zm1.828 1.837h1.836v1.836h-1.836V3.84z"/><path fill="#FFF" d="M14.2 5.67h1.836v1.835H14.2V5.67zm1.828 1.835h1.836v1.837h-1.836V7.505z"/><path fill="#FFF" d="M14.2 9.334h1.836v1.836H14.2V9.334zm1.828 1.836h1.836v1.836h-1.836V11.17zM14.2 13.006h1.836v1.837H14.2v-1.837z"/><path fill="#FFF" d="M16.028 14.835h1.836v1.836h-1.836v-1.836zM14.2 18.766v3.658a.914.914 0 00.914.914h1.867a.914.914 0 00.914-.914v-3.658H14.2zm2.78 3.658h-1.866v-1.837h1.867v1.837z"/></g></svg>