<svg xmlns="http://www.w3.org/2000/svg" width="32" height="32"><g fill="none"><path fill="#4997D9" d="M28.41 9.547v16.838a3.048 3.048 0 01-3.048 3.048H7.076a3.048 3.048 0 01-3.048-3.048V5.052a3.048 3.048 0 013.048-3.048h13.79l7.543 7.543z"/><path fill="#4B80CB" d="M20.866 8.024v-6.02l7.543 7.543H22.39a1.524 1.524 0 01-1.524-1.523z"/><path fill="#FFF" d="M8.638 15.406a1.47 1.47 0 011.524-1.622c.599-.014 1.144.344 1.371.899l-.526.213a.762.762 0 00-.883-.572.93.93 0 00-.953 1.06c0 .624.29 1.097.96 1.097a.83.83 0 00.853-.58l.519.214a1.41 1.41 0 01-1.38.899 1.463 1.463 0 01-1.485-1.608zm4.152-1.57h.42l1.249 3.14h-.61l-.251-.686h-1.189l-.259.686h-.61l1.25-3.14zm.633 1.974l-.42-1.143-.426 1.143h.846zm1.47-1.973h.907a1.448 1.448 0 011.63 1.592 1.448 1.448 0 01-1.63 1.524h-.907v-3.116zm.846 2.644c.693 0 1.127-.275 1.127-1.052s-.304-1.051-1.074-1.051h-.335v2.103h.282zm-7.162 3.725h10.491v.557H8.577v-.557zm12.587 0h4.198v.557h-4.198v-.557zm-1.326-9.165h.556v8.388h-.556v-8.388zm0 10.491h.556v4.198h-.556v-4.198z"/><path fill="#FFF" d="M21.552 18.766h-2.834a.343.343 0 00-.35.35v2.797a.343.343 0 00.35.35h2.834a.343.343 0 00.35-.35v-2.827a.343.343 0 00-.35-.32zm-.35 2.797h-2.134v-2.126h2.096l.038 2.126z"/></g></svg>