<svg xmlns="http://www.w3.org/2000/svg" width="32" height="32"><g fill="none"><path fill="#4EC47F" d="M28.41 9.547v16.838a3.048 3.048 0 01-3.048 3.048H7.076a3.048 3.048 0 01-3.048-3.048V5.052a3.048 3.048 0 013.048-3.048h13.79l7.543 7.543z"/><path fill="#3DA869" d="M20.866 8.024v-6.02l7.543 7.543H22.39a1.524 1.524 0 01-1.524-1.523z"/><path fill="#FFF" d="M11.65 14.612l1.18-1.18 7.962 7.962-1.179 1.18-7.963-7.962zm-.001 6.79l3.022-3.022 1.18 1.18-3.022 3.022-1.18-1.18zm4.937-4.94l3.028-3.027 1.18 1.179-3.028 3.028-1.18-1.18z"/></g></svg>