<svg xmlns="http://www.w3.org/2000/svg" width="32" height="32"><g fill="none"><path fill="#6597D9" d="M32 7.73v14.24a1.973 1.973 0 01-2.05 1.883H8.617a1.92 1.92 0 01-1.958-2.446l3.39-9.905H1.883A1.798 1.798 0 010 9.803V4.721a1.798 1.798 0 011.882-1.699h10.126a1.928 1.928 0 011.706.945l1.021 1.859h15.238c1.085-.03 1.99.82 2.027 1.905z"/><path fill="#91BAF8" d="M1.524 7.715h28.952c1.016 0 1.524.508 1.524 1.524v17.669c0 1.016-.508 1.524-1.524 1.524H1.524C.508 28.432 0 27.924 0 26.908V9.239c0-1.016.508-1.524 1.524-1.524z"/><path fill="#5287D0" d="M14.37 13.14h5.546c.455 0 .823.369.823.823v7.863h-7.192V13.97a.823.823 0 01.823-.83z"/><path fill="#5287D0" d="M12.785 21.704h8.708c.224 0 .336.112.336.335v.777c0 .224-.112.336-.336.336h-8.708c-.224 0-.335-.112-.335-.336v-.777c0-.223.111-.335.335-.335z"/><path fill="#91BAF8" d="M15.764 14.976h.564c.208 0 .312.104.312.313v.564c0 .208-.104.312-.312.312h-.564c-.208 0-.313-.104-.313-.312v-.564c0-.209.105-.313.313-.313zm2.164 0h.563c.209 0 .313.104.313.313v.564c0 .208-.104.312-.313.312h-.563c-.209 0-.313-.104-.313-.312v-.564c0-.209.104-.313.313-.313zm0 2.073h.563c.209 0 .313.104.313.312v.564c0 .208-.104.312-.313.312h-.563c-.209 0-.313-.104-.313-.312v-.564c0-.208.104-.312.313-.312zm-2.164 0h.564c.208 0 .312.104.312.312v.564c0 .208-.104.312-.312.312h-.564c-.208 0-.313-.104-.313-.312v-.564c0-.208.105-.312.313-.312zm0 2.08h.564c.208 0 .312.104.312.312v.564c0 .208-.104.312-.312.312h-.564c-.208 0-.313-.104-.313-.312v-.564c0-.208.105-.312.313-.312zm2.164 0h.563c.209 0 .313.104.313.312v.564c0 .208-.104.312-.313.312h-.563c-.209 0-.313-.104-.313-.312v-.564c0-.208.104-.312.313-.312z"/></g></svg>