<svg xmlns="http://www.w3.org/2000/svg" width="32" height="32"><g fill="none"><path fill="#BABABA" d="M28.41 9.547v16.838a3.048 3.048 0 01-3.048 3.048H7.076a3.048 3.048 0 01-3.048-3.048V5.052a3.048 3.048 0 013.048-3.048h13.79l7.543 7.543z"/><path fill="#979797" d="M20.866 6.5V2.004l7.543 7.543h-4.495A3.048 3.048 0 0120.866 6.5z"/><path fill="#FFF" d="M18.223 15.978c.044.442.01.888-.1 1.318l1.197.602c-.07.244-.16.481-.275.708l-.114.229c-.116.222-.25.434-.404.632l-1.196-.602a3.878 3.878 0 01-.998.861L16.744 21a4.762 4.762 0 01-.807.343 4.96 4.96 0 01-.853.205l-.39-1.257a3.81 3.81 0 01-1.317-.099l-.61 1.196a4.175 4.175 0 01-.7-.274l-.23-.114a4.236 4.236 0 01-.632-.404l.602-1.196a4.061 4.061 0 01-.922-1.014l-1.264.42a5.12 5.12 0 01-.32-.8l-.206-.854 1.272-.419a3.81 3.81 0 01.1-1.318l-1.197-.602c.059-.202.13-.4.214-.594l.228-.45c.105-.182.222-.358.35-.525l1.197.601c.28-.341.618-.633.998-.86l-.42-1.273c.262-.139.534-.254.816-.343l.853-.22.427 1.272a3.81 3.81 0 011.318.099l.602-1.196c.204.057.402.131.594.22l.115.054.22.114.115.061c.184.1.36.215.526.343l-.602 1.196c.341.281.633.619.86.998l1.273-.419c.127.263.232.535.312.815.09.28.16.565.206.854l-1.25.419z"/><path fill="#BABABA" d="M12.02 16.351a2.27 2.27 0 104.542 0 2.27 2.27 0 00-4.541 0z"/><path fill="#FFF" d="M22.39 22.675c-.13.183-.29.343-.472.472l.259.617a2.011 2.011 0 01-.335.176l-.115.053c-.118.047-.24.083-.365.107l-.252-.617c-.22.038-.443.038-.663 0l-.259.617a2.24 2.24 0 01-.419-.137 2.331 2.331 0 01-.388-.199l.259-.617a2.133 2.133 0 01-.473-.472l-.617.259a2.011 2.011 0 01-.175-.335l-.053-.115a2.21 2.21 0 01-.107-.365l.617-.252a2.149 2.149 0 010-.663l-.617-.259a2.24 2.24 0 01.137-.419l.198-.388.617.259c.134-.18.293-.34.473-.473l-.26-.617.275-.152.236-.1.305-.083.251.617c.22-.038.444-.038.663 0l.26-.617c.143.032.283.078.418.137l.389.198-.252.617c.181.13.338.29.465.473l.617-.26c.057.089.108.18.153.275v.061l.053.114v.061c0 .1.061.198.084.305l-.617.251c.038.22.038.444 0 .663l.617.26a2.24 2.24 0 01-.137.418c-.054.136-.12.266-.198.389l-.572-.26z"/><path fill="#BABABA" d="M19.647 21.532a1.135 1.135 0 102.27 0 1.135 1.135 0 00-2.27 0z"/></g></svg>