<svg xmlns="http://www.w3.org/2000/svg" width="32" height="32"><g fill="none"><path fill="#4997D9" d="M28.41 9.547v16.838a3.048 3.048 0 01-3.048 3.048H7.076a3.048 3.048 0 01-3.048-3.048V5.052a3.048 3.048 0 013.048-3.048h13.79l7.543 7.543z"/><path fill="#FFF" d="M18.07 22.248h1.593l2.651-8.487h-1.592l-2.652 8.487z"/><path fill="#4B80CB" d="M20.866 8.024v-6.02l7.543 7.543H22.39a1.524 1.524 0 01-1.524-1.523z"/><path fill="#FFF" d="M19.663 22.248H18.07l-2.644-7.421h1.585l2.652 7.421z"/><path fill="#FFF" d="M12.775 22.248h1.592l2.644-7.421h-1.585z"/><path fill="#FFF" d="M14.367 22.248h-1.592l-2.651-8.487h1.592l2.651 8.487z"/></g></svg>