<svg xmlns="http://www.w3.org/2000/svg" width="32" height="32"><g fill="none"><path fill="#A15FDE" d="M28.41 9.547v16.838a3.048 3.048 0 01-3.048 3.048H7.076a3.048 3.048 0 01-3.048-3.048V5.052a3.048 3.048 0 013.048-3.048h13.79l7.543 7.543z"/><path fill="#C386F0" d="M20.866 7.262V2.004l7.543 7.543h-5.257a2.286 2.286 0 01-2.286-2.285z"/><path fill="#FFF" d="M20.028 13.357V19.2c0 .647-.762 1.173-1.752 1.173s-1.745-.526-1.745-1.173c0-.648.762-1.174 1.745-1.174.34-.002.679.068.99.206v-4.091l-5.082 1.196v5.204c0 .647-.761 1.173-1.775 1.173-1.013 0-1.783-.526-1.783-1.173 0-.648.8-1.174 1.783-1.174.35-.004.695.07 1.014.214v-5.044a.762.762 0 01.586-.762l5.075-1.181a.762.762 0 01.944.762z"/></g></svg>