<svg xmlns="http://www.w3.org/2000/svg" width="32" height="32"><g fill="none"><path fill="#C386F0" d="M28.41 9.547v16.838a3.048 3.048 0 01-3.048 3.048H7.076a3.048 3.048 0 01-3.048-3.048V5.052a3.048 3.048 0 013.048-3.048h13.79l7.543 7.543z"/><path fill="#A15FDE" d="M20.866 6.5V2.004l7.543 7.543h-4.495A3.048 3.048 0 0120.866 6.5z"/><path fill="#FFF" d="M11.7 12.976h7.52c.509 0 .763.254.763.762v5.699c0 .508-.254.762-.762.762H11.7c-.508 0-.762-.254-.762-.762v-5.7c0-.507.254-.761.762-.761z"/><path fill="#FFF" d="M18.504 17.243l3.185 1.836a.762.762 0 001.143-.655V14.75a.762.762 0 00-1.143-.663l-3.185 1.844a.762.762 0 000 1.31z"/></g></svg>