<svg xmlns="http://www.w3.org/2000/svg" width="32" height="32"><g fill="none"><path fill="#F07661" d="M28.41 9.547v16.838a3.048 3.048 0 01-3.048 3.048H7.076a3.048 3.048 0 01-3.048-3.048V5.052a3.048 3.048 0 013.048-3.048h13.79l7.543 7.543z"/><path fill="#CF4E4E" d="M20.866 8.024v-6.02l7.543 7.543H22.39a1.524 1.524 0 01-1.524-1.523z"/><path fill="#FFF" d="M16.592 13.052a3.97 3.97 0 00-3.42 1.989v3.916a3.97 3.97 0 003.42 1.988 3.947 3.947 0 100-7.893zm0 6.316a2.377 2.377 0 01-2.37-2.37 2.37 2.37 0 112.37 2.37z"/><path fill="#FFF" d="M13.171 13.052h1.577V24.1h-1.577z"/></g></svg>