<svg xmlns="http://www.w3.org/2000/svg" width="32" height="32"><g fill="none"><path fill="#85BCFF" d="M28.39 9.547v16.838a3.048 3.048 0 01-3.048 3.048H7.056a3.048 3.048 0 01-3.047-3.048V5.052a3.048 3.048 0 013.047-3.048h13.79l7.543 7.543z"/><path fill="#529EE0" d="M20.991 6.5V2.004l7.543 7.543H24.04A3.048 3.048 0 0120.991 6.5z"/><path fill="#FFF" d="M10.866 11.368h10.666c1.016 0 1.524.508 1.524 1.524v8.709c0 1.016-.508 1.523-1.524 1.523H10.866c-1.016 0-1.524-.507-1.524-1.523v-8.709c0-1.016.508-1.524 1.524-1.524z"/><path fill="#85BCFF" d="M12.092 14.096a.907.907 0 101.814 0 .907.907 0 00-1.814 0zm3.49 5.668l-2.286-1.76-2.606 2.675v.891a.625.625 0 00.648.594h9.76a.632.632 0 00.655-.594v-3.566l-2.285-2.37-3.886 4.13z"/></g></svg>