<svg xmlns="http://www.w3.org/2000/svg" width="32" height="32"><g fill="none"><path fill="#5398DF" d="M32 8.454v13.455a1.928 1.928 0 01-2.05 1.775H8.617c-1.387 0-2.37-1.165-1.958-2.285l3.39-9.357H1.883A1.76 1.76 0 010 10.412v-4.8a1.76 1.76 0 011.882-1.6h10.126a1.943 1.943 0 011.706.891l1.044 1.776h15.238A1.935 1.935 0 0132 8.454z"/><path fill="#85BCFF" d="M1.524 8.446h28.952c1.016 0 1.524.508 1.524 1.524v16.518c0 1.016-.508 1.524-1.524 1.524H1.524C.508 28.012 0 27.504 0 26.488V9.97c0-1.016.508-1.524 1.524-1.524z"/><path fill="#3D89D6" d="M13.691 15.037a2.309 2.309 0 104.618 0 2.309 2.309 0 00-4.618 0zm-2.034 7.177c0-1.996 1.943-3.62 4.343-3.62s4.343 1.624 4.343 3.62c0 0-.26 1.356-4.343 1.356-4.084 0-4.343-1.356-4.343-1.356z"/></g></svg>