<svg xmlns="http://www.w3.org/2000/svg" width="16" height="16"><path d="M8 1a7 7 0 100 14A7 7 0 008 1zm0 11.063a.625.625 0 110-1.25.625.625 0 010 1.25zm.983-3.43a.755.755 0 00-.483.7v.354a.125.125 0 01-.125.126h-.75a.125.125 0 01-.125-.126v-.335a1.746 1.746 0 011.125-1.653c.531-.205.875-.65.875-1.136 0-.69-.673-1.25-1.5-1.25s-1.5.56-1.5 1.25v.118a.125.125 0 01-.125.125h-.75a.125.125 0 01-.125-.125v-.119c0-.614.269-1.187.756-1.614A2.634 2.634 0 018 4.312c.656 0 1.275.227 1.744.636.487.427.756 1 .756 1.614 0 .904-.595 1.716-1.517 2.07z"/></svg>