<svg xmlns="http://www.w3.org/2000/svg" width="16" height="16"><path d="M13.5 2.25H8.75a.25.25 0 00-.25.25v4.75c0 .138.113.25.25.25h4.75a.25.25 0 00.25-.25V2.5a.25.25 0 00-.25-.25zm0 6.25H8.75a.25.25 0 00-.25.25v4.75c0 .137.113.25.25.25h4.75a.25.25 0 00.25-.25V8.75a.25.25 0 00-.25-.25zM7.25 2.25H2.5a.25.25 0 00-.25.25v4.75c0 .138.112.25.25.25h4.75a.25.25 0 00.25-.25V2.5a.25.25 0 00-.25-.25zm0 6.25H2.5a.25.25 0 00-.25.25v4.75c0 .137.112.25.25.25h4.75a.25.25 0 00.25-.25V8.75a.25.25 0 00-.25-.25z"/></svg>