<svg xmlns="http://www.w3.org/2000/svg" width="16" height="16"><path d="M8 5.11c-.467 0-.906.18-1.237.512-.33.331-.513.77-.513 1.237 0 .468.183.907.513 1.238.33.33.77.512 1.237.512a1.745 1.745 0 001.75-1.75c0-.467-.181-.906-.512-1.237A1.737 1.737 0 008 5.109zm5.353-.593a5.664 5.664 0 00-1.248-1.808A5.86 5.86 0 008 1.046c-.783 0-1.542.15-2.258.446a5.82 5.82 0 00-1.847 1.216 5.681 5.681 0 00-1.248 1.808 5.55 5.55 0 00-.46 2.218c0 1.104.265 2.202.783 3.261.417.852 1 1.682 1.735 2.47a13.955 13.955 0 002.943 2.391.686.686 0 00.7 0c.374-.22 1.69-1.043 2.944-2.39a10.338 10.338 0 001.735-2.47c.521-1.059.786-2.155.786-3.26a5.55 5.55 0 00-.46-2.219zM8 9.61a2.75 2.75 0 110-5.5 2.75 2.75 0 010 5.5z"/></svg>