<svg xmlns="http://www.w3.org/2000/svg" width="16" height="16"><path d="M9.692 12.286a1.704 1.704 0 01-.495 1.212A1.66 1.66 0 018 14a1.66 1.66 0 01-1.197-.502 1.704 1.704 0 01-.495-1.212h3.384zm2.539-.857H3.002a.503.503 0 01-.502-.516.48.48 0 01.145-.362.546.546 0 01.357-.154h.767V7.143c.018-1.054.34-1.962.965-2.726.626-.763 1.433-1.256 2.42-1.48a.945.945 0 01.086-.455.81.81 0 01.31-.348.826.826 0 01.9 0 .81.81 0 01.31.348.945.945 0 01.086.455c1.005.233 1.816.73 2.433 1.494.617.763.934 1.667.952 2.712v3.254h.767c.14.01.26.06.357.154a.48.48 0 01.145.362.503.503 0 01-.502.516h-.767z"/></svg>