<svg xmlns="http://www.w3.org/2000/svg" width="16" height="16"><path d="M8.008 6.103c-.467 0-.905.181-1.236.513a1.74 1.74 0 00-.513 1.236c0 .467.183.904.513 1.236.331.33.769.512 1.236.512a1.74 1.74 0 001.236-.512 1.74 1.74 0 00.512-1.236 1.74 1.74 0 00-.512-1.236 1.734 1.734 0 00-1.236-.513zm6.442 3.68l-1.022-.874a5.614 5.614 0 000-1.803l1.022-.873a.5.5 0 00.145-.55l-.014-.04a6.914 6.914 0 00-1.243-2.152l-.029-.033a.502.502 0 00-.548-.149l-1.269.452a5.456 5.456 0 00-1.556-.899L9.69 1.536a.5.5 0 00-.404-.402l-.042-.007a7.041 7.041 0 00-2.48 0l-.043.007a.5.5 0 00-.403.402l-.247 1.333a5.504 5.504 0 00-1.545.895L3.248 3.31a.5.5 0 00-.548.149l-.028.033a6.968 6.968 0 00-1.244 2.151l-.014.04a.502.502 0 00.145.55l1.035.884a5.493 5.493 0 000 1.78l-1.031.884a.5.5 0 00-.146.55l.014.04c.283.786.7 1.513 1.244 2.152l.028.033a.502.502 0 00.549.148l1.278-.455a5.41 5.41 0 001.545.896l.247 1.333a.5.5 0 00.403.401l.042.008a7.004 7.004 0 002.481 0l.043-.008a.5.5 0 00.403-.401l.245-1.327a5.493 5.493 0 001.556-.898l1.27.451a.5.5 0 00.547-.148l.029-.033a6.968 6.968 0 001.243-2.152l.014-.04a.504.504 0 00-.148-.547zm-6.442.815a2.747 2.747 0 110-5.493 2.747 2.747 0 010 5.493z"/></svg>