<svg xmlns="http://www.w3.org/2000/svg" width="16" height="16"><path d="M13.486 8.102H7.898V2.514a.125.125 0 00-.125-.125h-.406a6.21 6.21 0 00-4.414 1.828 6.21 6.21 0 00-1.828 4.416 6.21 6.21 0 001.828 4.414 6.21 6.21 0 001.985 1.337c.77.327 1.589.493 2.43.493a6.21 6.21 0 004.415-1.829 6.21 6.21 0 001.337-1.984c.327-.77.493-1.589.493-2.431v-.406a.128.128 0 00-.127-.125zm1.373-.868l-.04-.44A6.227 6.227 0 009.194 1.18l-.442-.04a.124.124 0 00-.136.123V7.26c0 .07.056.125.125.125l5.993-.015a.126.126 0 00.125-.135z"/></svg>