<svg xmlns="http://www.w3.org/2000/svg" width="16" height="16"><path d="M6.713 13.987v-.856H9.3v.856H6.713zm6.037-7.27a4.633 4.633 0 01-1.725 3.621c-.26.214-.47.466-.626.756-.158.29-.236.603-.236.942v.24H5.85v-.187c0-.33-.065-.641-.196-.935a1.885 1.885 0 00-.572-.735 4.706 4.706 0 01-1.738-4.61 4.66 4.66 0 011.26-2.386A4.654 4.654 0 016.982 2.12a4.78 4.78 0 012.102.014c.691.16 1.32.467 1.886.922a4.755 4.755 0 011.314 1.63c.31.632.465 1.31.465 2.031zm-7.33.428c.008-.9.244-1.62.707-2.158.463-.54 1.09-.818 1.88-.836v-.855c-1.051.027-1.885.394-2.5 1.103-.615.708-.932 1.623-.95 2.746h.863z"/></svg>