<svg xmlns="http://www.w3.org/2000/svg" width="16" height="16"><path d="M8 2c1.696.045 3.11.632 4.239 1.761C13.369 4.891 13.955 6.304 14 8c-.045 1.696-.632 3.11-1.761 4.239C11.109 13.369 9.696 13.955 8 14c-1.696-.045-3.11-.632-4.239-1.761C2.631 11.109 2.045 9.696 2 8c.045-1.696.632-3.11 1.761-4.239C4.891 2.631 6.304 2.045 8 2zm.897 3.683c.232 0 .424-.07.576-.208a.715.715 0 00.228-.555.715.715 0 00-.228-.556.813.813 0 00-.569-.208.813.813 0 00-.57.208.715.715 0 00-.227.556c0 .232.076.417.228.555.152.139.34.208.562.208zm.161 4.821c0-.053.005-.125.013-.214.01-.09.01-.174 0-.254l-.71.817a.933.933 0 01-.22.187c-.076.045-.141.058-.195.04-.08-.035-.116-.098-.107-.187l1.179-3.71c.044-.25.004-.464-.12-.643-.126-.178-.327-.286-.603-.321-.313.009-.654.14-1.025.395-.37.254-.694.578-.97.97v.202c-.01.089-.01.174 0 .254l.709-.817a.933.933 0 01.22-.187c.077-.045.137-.058.182-.04.089.044.12.116.093.214L6.34 10.906a.665.665 0 00.094.596c.125.174.344.293.656.355.447-.009.822-.138 1.125-.388.304-.25.585-.572.844-.965z"/></svg>