<svg xmlns="http://www.w3.org/2000/svg" width="16" height="16"><path d="M14.45 6.025a6.98 6.98 0 00-1.5-2.225A6.98 6.98 0 008 1.75 6.98 6.98 0 003.05 3.8 6.98 6.98 0 001 8.75c0 2.073.91 4.027 2.498 5.36l.027.023c.09.075.205.117.322.117h8.308a.507.507 0 00.322-.117l.026-.022A6.991 6.991 0 0015 8.75c0-.945-.186-1.86-.55-2.725zm-6.919-2.4c0-.069.057-.125.125-.125h.688c.069 0 .125.056.125.125v1.25A.125.125 0 018.344 5h-.688a.125.125 0 01-.125-.125v-1.25zM4.22 9.094a.125.125 0 01-.125.125h-1.25a.125.125 0 01-.125-.125v-.688c0-.069.056-.125.125-.125h1.25c.068 0 .125.056.125.125v.688zm1.417-3.196l-.486.486a.125.125 0 01-.177 0L4.09 5.5a.125.125 0 010-.177l.486-.486a.125.125 0 01.177 0l.884.885a.125.125 0 010 .176zm4.548 1.307l-1.32 1.32a.874.874 0 11-.619-.619l1.32-1.32a.125.125 0 01.177 0l.442.442a.125.125 0 010 .177zm.672-.82L10.37 5.9a.125.125 0 010-.177l.885-.884a.125.125 0 01.176 0l.486.486a.125.125 0 010 .177l-.884.884a.125.125 0 01-.177 0zm2.363 2.709a.125.125 0 01-.125.125h-1.25a.125.125 0 01-.125-.125v-.688c0-.069.056-.125.125-.125h1.25c.069 0 .125.056.125.125v.688z"/></svg>