<svg xmlns="http://www.w3.org/2000/svg" width="16" height="16"><path d="M14.442 5.287a6.993 6.993 0 00-3.736-3.743A6.936 6.936 0 008 1h-.031a6.953 6.953 0 00-4.935 2.069A6.953 6.953 0 001.55 5.3a7.043 7.043 0 00.214 5.856v2.375c0 .397.322.719.717.719h2.372A7 7 0 007.97 15h.033c.934 0 1.84-.181 2.692-.536a6.925 6.925 0 002.227-1.487 6.95 6.95 0 001.505-2.22 7.014 7.014 0 00.559-2.726 7.03 7.03 0 00-.544-2.744zM4.882 8.75a.75.75 0 010-1.5.75.75 0 010 1.5zM8 8.75a.75.75 0 010-1.5.75.75 0 010 1.5zm3.119 0a.75.75 0 010-1.5.75.75 0 010 1.5z"/></svg>