<svg xmlns="http://www.w3.org/2000/svg" width="16" height="16"><path d="M12.5 7a1.5 1.5 0 011.493 1.356L14 8.5v5a1.5 1.5 0 01-1.356 1.493L12.5 15h-9a1.5 1.5 0 01-1.493-1.356L2 13.5v-5a1.5 1.5 0 011.356-1.493L3.5 7h9zm0 1h-9a.5.5 0 00-.492.41L3 8.5v5a.5.5 0 00.41.492L3.5 14h9a.5.5 0 00.492-.41L13 13.5v-5a.5.5 0 00-.41-.492L12.5 8zM8 9a1 1 0 01.501 1.866L8.5 12.5a.5.5 0 11-1 0v-1.634A1 1 0 018 9zm0-8a3.5 3.5 0 013.495 3.308l.005.192v1a.5.5 0 01-.992.09L10.5 5.5v-1a2.5 2.5 0 00-4.995-.164L5.5 4.5v1a.5.5 0 01-.992.09L4.5 5.5v-1A3.5 3.5 0 018 1z"/></svg>