<svg xmlns="http://www.w3.org/2000/svg" width="16" height="16"><path d="M13.5 3.875h-2.125l-.506-1.419a.501.501 0 00-.472-.331H5.603a.5.5 0 00-.47.331l-.508 1.419H2.5c-.69 0-1.25.56-1.25 1.25v7.125c0 .69.56 1.25 1.25 1.25h11c.69 0 1.25-.56 1.25-1.25V5.125c0-.69-.56-1.25-1.25-1.25zm.125 8.375a.125.125 0 01-.125.125h-11a.125.125 0 01-.125-.125V5.125c0-.069.056-.125.125-.125h2.917l.267-.747.358-1.003h3.914l.358 1.003.267.747H13.5c.069 0 .125.056.125.125v7.125zM8 6a2.5 2.5 0 10-.001 4.999A2.5 2.5 0 008 6zm0 4a1.5 1.5 0 110-3 1.5 1.5 0 010 3z"/></svg>