<svg xmlns="http://www.w3.org/2000/svg" width="16" height="16"><path d="M8.857 13.155a.867.867 0 01-.254.604A.817.817 0 018 14a.817.817 0 01-.603-.241.867.867 0 01-.254-.604h1.714zM8 2a.865.865 0 01.857.858l.001.09c.84.166 1.566.554 2.175 1.164.809.809 1.226 1.821 1.253 3.037l-.001 4.29h1.286c.286 0 .429.143.429.43 0 .285-.143.428-.429.428H2.43c-.286 0-.429-.143-.429-.429 0-.286.143-.429.429-.429h1.285V7.15c.027-1.216.444-2.228 1.253-3.037A4.139 4.139 0 017.143 2.95v-.09A.867.867 0 018 2zm0 1.716c-.973.027-1.781.362-2.424 1.006-.643.643-.978 1.452-1.005 2.427v4.29h6.858V7.15c-.027-.975-.362-1.784-1.005-2.427-.643-.644-1.45-.979-2.424-1.006z"/></svg>