<svg xmlns="http://www.w3.org/2000/svg" width="16" height="16"><path d="M7.25 8a.75.75 0 101.5 0 .75.75 0 00-1.5 0zm3.125 0a.75.75 0 101.5 0 .75.75 0 00-1.5 0zm-6.25 0a.75.75 0 101.5 0 .75.75 0 00-1.5 0zm10.331-2.713A7.002 7.002 0 008 1h-.031a6.984 6.984 0 00-6.97 7.033 7.023 7.023 0 00.751 3.123v2.375a.72.72 0 00.719.719h2.376a7.03 7.03 0 003.124.75h.033c.935 0 1.843-.181 2.698-.536a6.945 6.945 0 002.231-1.487A6.985 6.985 0 0015 8.032a6.975 6.975 0 00-.544-2.745zm-2.36 6.844A5.782 5.782 0 018 13.812h-.027a5.833 5.833 0 01-2.704-.68l-.131-.07h-2.2v-2.2l-.07-.13a5.834 5.834 0 01-.68-2.705 5.777 5.777 0 011.68-4.122 5.769 5.769 0 014.107-1.717h.027a5.784 5.784 0 014.112 1.701 5.784 5.784 0 011.702 4.138 5.79 5.79 0 01-1.72 4.104z"/></svg>