<svg xmlns="http://www.w3.org/2000/svg" width="16" height="16"><path d="M13.353 4.51L9.991 1.146A.5.5 0 009.637 1H3a.5.5 0 00-.5.5v13a.5.5 0 00.5.5h10a.5.5 0 00.5-.5V4.864a.503.503 0 00-.147-.355zm-1.006.584h-2.94v-2.94l2.94 2.94zm.028 8.781h-8.75V2.125h4.719V5.5c0 .362.293.656.656.656h3.375v7.719zm-4.5-4.219H5a.125.125 0 00-.125.125v.75c0 .069.056.125.125.125h2.875A.125.125 0 008 10.531v-.75a.125.125 0 00-.125-.125zm-3-2v.75c0 .069.056.125.125.125h6a.125.125 0 00.125-.125v-.75A.125.125 0 0011 7.531H5a.125.125 0 00-.125.125z"/></svg>