<svg xmlns="http://www.w3.org/2000/svg" width="16" height="16"><path d="M7.25 2.25H2.5a.25.25 0 00-.25.25v4.75c0 .138.112.25.25.25h4.75a.25.25 0 00.25-.25V2.5a.25.25 0 00-.25-.25zm-.813 4.188H3.313V3.313h3.126v3.124zM13.5 2.25H8.75a.25.25 0 00-.25.25v4.75c0 .138.113.25.25.25h4.75a.25.25 0 00.25-.25V2.5a.25.25 0 00-.25-.25zm-.813 4.188H9.563V3.313h3.124v3.124zM7.25 8.5H2.5a.25.25 0 00-.25.25v4.75c0 .137.112.25.25.25h4.75a.25.25 0 00.25-.25V8.75a.25.25 0 00-.25-.25zm-.813 4.188H3.313V9.562h3.126v3.126zM13.5 8.5H8.75a.25.25 0 00-.25.25v4.75c0 .137.113.25.25.25h4.75a.25.25 0 00.25-.25V8.75a.25.25 0 00-.25-.25zm-.813 4.188H9.563V9.562h3.124v3.126z"/></svg>