<svg xmlns="http://www.w3.org/2000/svg" width="16" height="16"><path d="M13.5 8.094H7.906V2.5a.125.125 0 00-.125-.125h-.406a6.226 6.226 0 00-4.419 1.83 6.222 6.222 0 00-1.831 4.42 6.226 6.226 0 001.83 4.419 6.222 6.222 0 004.42 1.831 6.226 6.226 0 004.419-1.83 6.222 6.222 0 001.831-4.42v-.406a.125.125 0 00-.125-.125zm-2.473 4.215a5.181 5.181 0 01-3.677 1.504 5.154 5.154 0 01-3.644-1.52 5.154 5.154 0 01-1.518-3.668c0-1.386.539-2.69 1.518-3.669a5.142 5.142 0 013.138-1.492v5.692h5.692a5.146 5.146 0 01-1.51 3.153zm3.848-5.084l-.04-.44a6.216 6.216 0 00-1.8-3.823 6.24 6.24 0 00-3.832-1.796l-.442-.041a.124.124 0 00-.136.123V7.25c0 .069.056.125.125.125l6-.016a.125.125 0 00.125-.134zm-5.19-.91V2.307c.977.205 1.885.69 2.6 1.403a5.159 5.159 0 011.406 2.596l-4.007.01z"/></svg>