<svg xmlns="http://www.w3.org/2000/svg" width="16" height="16"><path d="M9.547 8.225c1.19.37 2.142 1.031 2.856 1.983.714.952 1.08 2.05 1.097 3.292h-11c.018-1.243.383-2.34 1.097-3.292.675-.9 1.561-1.539 2.66-1.919l.196-.064L8 10.538l1.547-2.313zm.522 1.287l-.136-.067L8 12.338 6.066 9.445l-.135.067a4.39 4.39 0 00-1.428 1.16l-.106.136a4.365 4.365 0 00-.776 1.663l-.006.028h8.77l-.006-.028a4.345 4.345 0 00-.676-1.524l-.1-.14a4.402 4.402 0 00-1.534-1.295zM8 2.5c.776.018 1.423.286 1.944.806.52.52.788 1.168.806 1.944-.018.776-.286 1.423-.806 1.944a2.71 2.71 0 01-1.8.8L8 8c-.776-.018-1.423-.286-1.944-.806-.52-.52-.788-1.168-.806-1.944.018-.776.286-1.423.806-1.944a2.71 2.71 0 011.8-.8L8 2.5zm0 1l-.096.005a1.705 1.705 0 00-1.14.509 1.707 1.707 0 00-.514 1.213c.012.522.178.924.514 1.26.335.335.737.501 1.213.513.522-.012.924-.178 1.26-.514.335-.335.501-.737.513-1.213-.012-.522-.178-.924-.514-1.26a1.705 1.705 0 00-1.14-.508L8 3.501z"/></svg>