<svg xmlns="http://www.w3.org/2000/svg" width="16" height="16"><path d="M9.5 2a1.5 1.5 0 011.493 1.356L11 3.5V4h1.5a1.5 1.5 0 011.493 1.356L14 5.5v6a1.5 1.5 0 01-1.356 1.493L12.5 13h-9a1.5 1.5 0 01-1.493-1.356L2 11.5v-6a1.5 1.5 0 011.356-1.493L3.5 4H5v-.5a1.5 1.5 0 011.356-1.493L6.5 2h3zm3 3h-9a.5.5 0 00-.492.41L3 5.5v6a.5.5 0 00.41.492L3.5 12h9a.5.5 0 00.492-.41L13 11.5v-6a.5.5 0 00-.5-.5zM6 6a1.5 1.5 0 01.905 2.697c.577.285.949.877 1.088 1.721a.5.5 0 01-.986.164C6.879 9.808 6.57 9.5 6 9.5s-.879.308-1.007 1.082a.5.5 0 01-.986-.164c.14-.844.511-1.436 1.088-1.722A1.5 1.5 0 016 6zm5.5 3a.5.5 0 110 1h-2a.5.5 0 010-1h2zm0-2a.5.5 0 110 1h-2a.5.5 0 010-1h2zM6 7a.5.5 0 100 1 .5.5 0 000-1zm3.5-4h-3a.5.5 0 00-.492.41L6 3.5V4h4v-.5a.5.5 0 00-.41-.492L9.5 3z"/></svg>