<svg xmlns="http://www.w3.org/2000/svg" width="16" height="16"><path d="M14.422 4.431a4.131 4.131 0 00-2.202-2.16 4.146 4.146 0 00-1.6-.318A4.173 4.173 0 008 2.877a4.173 4.173 0 00-2.62-.923 4.146 4.146 0 00-2.913 1.183A4.038 4.038 0 001.25 6.024c0 .52.106 1.063.317 1.615.177.46.43.939.753 1.421.513.764 1.218 1.561 2.092 2.37a23.387 23.387 0 002.947 2.3l.37.238a.502.502 0 00.54 0l.37-.237a23.69 23.69 0 002.947-2.302c.875-.808 1.58-1.605 2.092-2.369.324-.482.578-.96.753-1.421a4.523 4.523 0 00.317-1.615 3.978 3.978 0 00-.326-1.592zM8 12.731S2.437 9.167 2.437 6.023c0-1.592 1.318-2.882 2.943-2.882A2.95 2.95 0 018 4.709a2.95 2.95 0 012.62-1.568c1.625 0 2.943 1.29 2.943 2.882C13.563 9.167 8 12.731 8 12.731z"/></svg>