<svg xmlns="http://www.w3.org/2000/svg" width="16" height="16"><path d="M14 1a1 1 0 011 1v12a1 1 0 01-1 1H3a1 1 0 01-1-1v-1.5h1V14h11V2H3v1.5H2V2a1 1 0 011-1h11zm-3.5 2a.5.5 0 01.49.603l-.026.083-.932 2.329 1.442 4.327a.5.5 0 01-.046.417l-.052.07-.064.061-2.5 2a.5.5 0 01-.542.054l-.082-.054-2.5-2a.5.5 0 01-.183-.462l.02-.086 1.442-4.327-.931-2.33a.5.5 0 01.298-.657l.08-.02L6.5 3h4zM9.139 6.5H7.86l-1.276 3.827L8.5 11.859l1.915-1.532L9.139 6.5zM3.5 11a.5.5 0 110 1h-2a.5.5 0 110-1h2zM3 5.5v5H2v-5h1zM3.5 4a.5.5 0 010 1h-2a.5.5 0 010-1h2zm6.261 0H7.238l.6 1.5h1.323l.6-1.5z"/></svg>