<svg xmlns="http://www.w3.org/2000/svg" width="16" height="16"><path d="M8 2a3 3 0 011.365 5.672A5.499 5.499 0 0113.5 13c0 .753-.498.938-2.818.984l-1.058.013H6.375C3.143 13.977 2.5 13.856 2.5 13a5.502 5.502 0 014.135-5.33A3 3 0 018 2zM4 3a.5.5 0 01.09.992L4 4c-.474 0-1 .526-1 1.5 0 .742.49 1.232 1.621 1.515.505.126.505.844 0 .97-1.217.304-2.11.9-2.705 1.792C1.302 10.7 1 11.604 1 12.5a.5.5 0 11-1 0c0-1.104.365-2.199 1.084-3.277a5.023 5.023 0 011.96-1.72l.069-.034-.034-.02c-.654-.423-1.024-1.018-1.073-1.772L2 5.5C2 3.974 2.974 3 4 3zm8 0c.983 0 1.919.894 1.995 2.312L14 5.5l-.006.177c-.045.692-.36 1.249-.916 1.663l-.157.11-.034.019.069.033a5.023 5.023 0 011.96 1.72C15.635 10.303 16 11.397 16 12.5a.5.5 0 11-1 0c0-.896-.302-1.801-.916-2.723-.595-.892-1.488-1.488-2.705-1.792-.505-.126-.505-.844 0-.97C12.509 6.732 13 6.242 13 5.5c0-.913-.462-1.432-.91-1.494L12 4a.5.5 0 110-1zM8 8.5a4.501 4.501 0 00-4.457 3.872l-.024.207-.015.221.06.017c.097.025.22.047.366.067l.155.019.303.028.345.022c.429.024.953.037 1.65.043l.276.002H9.34c1.05-.006 1.735-.025 2.272-.067l.303-.028c.217-.024.392-.053.52-.086l.06-.017-.014-.221A4.501 4.501 0 008.428 8.52l-.216-.015L8 8.5zM8 3a2 2 0 100 4 2 2 0 000-4z"/></svg>