<svg xmlns="http://www.w3.org/2000/svg" width="16" height="16"><path d="M14.45 9.777l-1.023-.875a5.619 5.619 0 000-1.807l1.023-.875a.5.5 0 00.145-.55l-.014-.04a6.933 6.933 0 00-1.245-2.155l-.028-.033a.502.502 0 00-.549-.148l-1.27.451a5.506 5.506 0 00-1.558-.9l-.245-1.328a.5.5 0 00-.403-.401l-.042-.008a7.059 7.059 0 00-2.485 0l-.042.008a.5.5 0 00-.403.401l-.247 1.335a5.498 5.498 0 00-1.547.896l-1.28-.454a.5.5 0 00-.548.148l-.028.033A6.97 6.97 0 001.416 5.63l-.014.04a.502.502 0 00.145.55l1.036.885a5.498 5.498 0 000 1.784l-1.036.884a.5.5 0 00-.145.55l.014.041A6.951 6.951 0 002.66 12.52l.028.033a.502.502 0 00.548.148l1.28-.455a5.46 5.46 0 001.547.897l.247 1.335a.5.5 0 00.403.401l.042.008a7.022 7.022 0 002.485 0l.042-.008a.5.5 0 00.403-.401l.245-1.329a5.469 5.469 0 001.558-.9l1.27.452a.5.5 0 00.549-.148l.028-.033a6.97 6.97 0 001.245-2.155l.014-.04a.498.498 0 00-.145-.547zM12.317 7.28a4.422 4.422 0 010 1.44l-.103.627 1.167.998c-.176.408-.4.792-.665 1.15l-1.45-.514-.491.403c-.373.307-.79.547-1.24.716l-.594.223-.28 1.516c-.44.05-.888.05-1.328 0l-.28-1.519-.59-.226a4.371 4.371 0 01-1.23-.714l-.49-.405-1.46.519a5.904 5.904 0 01-.666-1.15l1.18-1.008-.102-.625a4.307 4.307 0 010-1.422l.102-.625-1.18-1.008c.177-.408.4-.792.666-1.15l1.46.519.49-.405c.37-.304.784-.545 1.23-.714l.592-.223.28-1.519c.438-.05.887-.05 1.327 0l.28 1.516.595.223c.449.169.866.41 1.24.716l.49.403 1.45-.514c.266.358.488.744.666 1.15l-1.167.998.101.624zM8 5.094a2.75 2.75 0 100 5.5 2.75 2.75 0 000-5.5zM9.238 9.08c-.332.33-.77.513-1.238.513-.467 0-.906-.183-1.237-.513a1.744 1.744 0 01-.513-1.237c0-.467.183-.907.513-1.238.33-.331.77-.512 1.237-.512.467 0 .906.181 1.238.512.33.332.512.77.512 1.238 0 .467-.183.906-.512 1.237z"/></svg>