<svg xmlns="http://www.w3.org/2000/svg" width="16" height="16"><path d="M13.927 3.967a.2.2 0 00-.314-.04L10.921 6.62 9.86 5.56l2.694-2.694a.2.2 0 00-.04-.313A4.006 4.006 0 006.613 7.04l-4.579 4.578a.121.121 0 00.005.172l2.652 2.652c.048.048.126.051.172.004L9.438 9.87a4.006 4.006 0 004.49-5.902zm-1.415 4.067a2.88 2.88 0 01-3.354.525l-.137.138-4.283 4.281-1.237-1.237 3.595-3.596.827-.823a2.88 2.88 0 012.775-4.19L8.62 5.209a.5.5 0 000 .708l1.945 1.945a.5.5 0 00.708 0l2.075-2.075a2.882 2.882 0 01-.837 2.248z"/></svg>