<svg xmlns="http://www.w3.org/2000/svg" width="16" height="16"><path d="M6.193 2.429c0-.125.042-.228.127-.308A.453.453 0 016.645 2c.131 0 .24.04.324.12.085.08.127.184.127.309v10.54a.37.37 0 01-.077.234.497.497 0 01-.205.154.464.464 0 01-.494-.094L2.127 9.286A.398.398 0 012 8.984c0-.12.042-.22.127-.301a.45.45 0 01.318-.134.45.45 0 01.317.134l3.43 3.255v-9.51zm2.71.602a.37.37 0 01.078-.234.497.497 0 01.205-.154.464.464 0 01.494.094l4.193 3.977c.085.08.127.181.127.302 0 .12-.042.22-.127.301a.45.45 0 01-.318.134.45.45 0 01-.317-.134l-3.43-3.255v9.51a.406.406 0 01-.128.307.453.453 0 01-.325.121.453.453 0 01-.324-.12.406.406 0 01-.127-.309V3.031z"/></svg>