<svg xmlns="http://www.w3.org/2000/svg" width="16" height="16"><path d="M14.45 6.025a6.98 6.98 0 00-1.5-2.225A6.98 6.98 0 008 1.75 6.98 6.98 0 003.05 3.8 6.98 6.98 0 001 8.75c0 2.073.91 4.027 2.498 5.36l.027.023c.09.075.205.117.322.117h8.308a.507.507 0 00.322-.117l.026-.022A6.991 6.991 0 0015 8.75c0-.945-.186-1.86-.55-2.725zm-2.553 7.037H4.103A5.799 5.799 0 012.188 8.75c0-1.553.604-3.013 1.703-4.11A5.774 5.774 0 018 2.939a5.77 5.77 0 014.11 1.703 5.774 5.774 0 011.703 4.109c0 1.65-.696 3.21-1.916 4.313zM9.742 6.587a.125.125 0 00-.176 0l-1.32 1.32a.874.874 0 10.619.619l1.32-1.32a.125.125 0 000-.177l-.443-.442zM7.656 5h.688a.125.125 0 00.125-.125v-1.25a.125.125 0 00-.125-.125h-.688a.125.125 0 00-.125.125v1.25c0 .069.057.125.125.125zm4.063 3.406v.688c0 .069.056.125.125.125h1.25a.125.125 0 00.125-.125v-.688a.125.125 0 00-.125-.125h-1.25a.125.125 0 00-.125.125zm.198-3.081l-.486-.486a.125.125 0 00-.176 0l-.885.884a.125.125 0 000 .177l.486.486a.125.125 0 00.177 0l.884-.884a.125.125 0 000-.177zm-7.165-.486a.125.125 0 00-.177 0l-.486.486a.125.125 0 000 .177l.884.884a.125.125 0 00.177 0l.486-.486a.125.125 0 000-.177l-.884-.884zm-.658 3.442h-1.25a.125.125 0 00-.125.125v.688c0 .069.056.125.125.125h1.25a.125.125 0 00.125-.125v-.688a.125.125 0 00-.125-.125z"/></svg>