<svg xmlns="http://www.w3.org/2000/svg" width="16" height="16"><path d="M2.729 1.455C3.283.901 4.14.867 4.69 1.351l.205.203 1.526 1.92c.46.552.447 1.318.003 1.858l-.101.112-.838.837c.542.887 1.133 1.675 1.822 2.364.59.59 1.254 1.11 1.99 1.587l.373.235.887-.787a1.448 1.448 0 011.849-.19l.121.091 1.92 1.527c.641.492.74 1.428.247 2.067-.036.037-.046.074-.069.09l-.03.009-1.329 1.33c-1.28 1.28-4.727-.543-8.027-3.842C2.017 7.54.251 4.223 1.318 2.878l.081-.093 1.33-1.33zm1.378.739a.474.474 0 00-.611-.064l-.078.064-1.33 1.33c-.64.64.985 3.693 3.841 6.599 2.781 2.829 5.796 4.397 6.544 3.887l.055-.046 1.38-1.379c.13-.175.145-.467-.025-.634L11.89 10.37c-.173-.129-.42-.145-.579-.015l-.062.065-1.133 1.083a.524.524 0 01-.59.098A12.77 12.77 0 016.62 9.433a12.77 12.77 0 01-2.167-2.905.524.524 0 01.04-.522l.058-.07 1.132-1.131c.173-.173.195-.383.098-.565l-.048-.076-1.576-1.92s0-.05-.05-.05zm4.728 2.197a2.963 2.963 0 012.954 2.954c0 .296-.196.493-.492.493s-.493-.197-.493-.493c0-1.083-.885-1.97-1.969-1.97-.296 0-.492-.196-.492-.492s.196-.492.492-.492zm0-2.345a4.94 4.94 0 014.925 4.925c0 .296-.197.492-.493.492s-.492-.196-.492-.492a3.95 3.95 0 00-3.94-3.94c-.296 0-.492-.196-.492-.492s.196-.493.492-.493z"/></svg>